<?xml version="1.0" encoding="UTF-8"?>
<svg version="1.1" xmlns="http://www.w3.org/2000/svg" width="135" height="163">
<path d="M0 0 C1.59908203 -0.00386719 1.59908203 -0.00386719 3.23046875 -0.0078125 C5.8125 0.125 5.8125 0.125 6.8125 1.125 C6.96376231 3.10013667 7.03423766 5.08178135 7.0625 7.0625 C7.08828125 8.14402344 7.1140625 9.22554687 7.140625 10.33984375 C7.03234375 11.25894531 6.9240625 12.17804687 6.8125 13.125 C3.62487635 15.25008244 1.54737777 15.6270163 -2.1875 16.125 C-2.26266846 16.82061035 -2.33783691 17.5162207 -2.4152832 18.23291016 C-2.76501937 21.40670642 -3.13233836 24.57823239 -3.5 27.75 C-3.61794922 28.84441406 -3.73589844 29.93882813 -3.85742188 31.06640625 C-4.68684353 38.08458946 -5.53916546 44.28357039 -11.1875 49.125 C-10.1833194 51.28785052 -9.21345514 53.09363754 -7.6875 54.9375 C-3.8012762 60.60490971 -3.83406155 67.30361993 -3.625 73.9375 C-3.56517632 75.63165558 -3.50156092 77.32568283 -3.43359375 79.01953125 C-3.40966553 79.76050049 -3.3857373 80.50146973 -3.36108398 81.26489258 C-3.29211899 83.21757258 -3.29211899 83.21757258 -2.1875 85.125 C0.14497761 85.46426947 2.47835471 85.79740066 4.8125 86.125 C6.8125 88.125 6.8125 88.125 7.078125 90.4375 C7.07296875 91.324375 7.0678125 92.21125 7.0625 93.125 C7.07023437 94.4553125 7.07023437 94.4553125 7.078125 95.8125 C6.8125 98.125 6.8125 98.125 4.8125 100.125 C-1.55075754 100.85848927 -7.86262477 101.02125017 -13.1875 97.125 C-17.17624034 93.13625966 -19.24563869 89.67134149 -19.43359375 83.9921875 C-19.46646484 83.18523437 -19.49933594 82.37828125 -19.53320312 81.546875 C-19.59355241 79.87250324 -19.65093149 78.19802132 -19.70507812 76.5234375 C-19.93688015 70.99517796 -20.19306193 65.34198893 -22.1875 60.125 C-24.02478303 58.45542272 -24.02478303 58.45542272 -26.3125 58.0625 C-27.59125 57.753125 -28.87 57.44375 -30.1875 57.125 C-30.1875 52.835 -30.1875 48.545 -30.1875 44.125 C-28.16927083 43.34375 -26.15104167 42.5625 -24.1328125 41.78125 C-21.08909278 39.18980991 -20.71539116 35.91687177 -20.1875 32.125 C-19.87599057 27.93626492 -19.82232397 23.74595477 -19.796875 19.546875 C-19.63414775 13.65253238 -18.58125116 9.03589538 -15.1875 4.125 C-10.38628851 0.40406109 -5.945099 -0.01448258 0 0 Z " fill="#FCFCFC" transform="translate(54.1875,22.875)"/>
<path d="M0 0 C5.614293 0.08939957 11.2789286 0.87878064 15.640625 4.6796875 C19.76893407 9.44859625 20.11559932 13.12323622 20 19.25 C18.35 19.58 16.7 19.91 15 20.25 C15 22.56 15 24.87 15 27.25 C16.2065625 27.2190625 16.2065625 27.2190625 17.4375 27.1875 C20 27.25 20 27.25 21 28.25 C21.19049697 30.18720763 21.37739637 32.12476959 21.5625 34.0625 C22.14921944 38.5387155 22.14921944 38.5387155 24.875 41.8984375 C26.89430586 42.85760779 28.86768998 43.58921821 31 44.25 C32 45.25 32 45.25 32.09765625 47.75390625 C32.08605469 48.76324219 32.07445312 49.77257812 32.0625 50.8125 C32.05347656 51.82441406 32.04445312 52.83632812 32.03515625 53.87890625 C32.02355469 54.66136719 32.01195312 55.44382813 32 56.25 C31.44570312 56.49234375 30.89140625 56.7346875 30.3203125 56.984375 C29.59585938 57.31953125 28.87140625 57.6546875 28.125 58 C27.40570313 58.32484375 26.68640625 58.6496875 25.9453125 58.984375 C23.52821263 60.556946 22.9519482 61.53278863 22 64.25 C20.8481109 70.34603647 20.71406285 76.47961668 20.5703125 82.66601562 C20.37195791 87.54636511 19.68856588 91.02237384 17 95.25 C11.72331196 99.40398845 7.89965095 100.39258919 1.3125 100.375 C0.33925781 100.37757813 -0.63398437 100.38015625 -1.63671875 100.3828125 C-4 100.25 -4 100.25 -5 99.25 C-5.07244053 97.23035801 -5.08377188 95.20832876 -5.0625 93.1875 C-5.05347656 92.08277344 -5.04445312 90.97804688 -5.03515625 89.83984375 C-5.02355469 88.98519531 -5.01195312 88.13054687 -5 87.25 C-0.545 86.26 -0.545 86.26 4 85.25 C4.86195449 81.80218204 5.16098802 78.78762333 5.29003906 75.2590332 C5.67380336 65.0550933 6.83231754 57.9988459 14 50.25 C13.236875 49.59 12.47375 48.93 11.6875 48.25 C5.57161944 42.03936636 5.50115732 33.96467858 5.3125 25.75 C5.27833984 24.73679687 5.24417969 23.72359375 5.20898438 22.6796875 C5.12721474 20.20323583 5.0578375 17.72710651 5 15.25 C4.36191406 15.18941406 3.72382812 15.12882812 3.06640625 15.06640625 C2.24011719 14.98261719 1.41382812 14.89882813 0.5625 14.8125 C-0.26121094 14.73128906 -1.08492188 14.65007813 -1.93359375 14.56640625 C-4 14.25 -4 14.25 -5 13.25 C-5.09873816 11.25200428 -5.12971799 9.25042842 -5.125 7.25 C-5.12757812 6.156875 -5.13015625 5.06375 -5.1328125 3.9375 C-4.9283689 -0.19947634 -3.78423877 0.07883831 0 0 Z M9 8.25 C9 9.9 9 11.55 9 13.25 C10.65 13.25 12.3 13.25 14 13.25 C14 11.6 14 9.95 14 8.25 C12.35 8.25 10.7 8.25 9 8.25 Z " fill="#ECB310" transform="translate(69,41.75)"/>
<path d="M0 0 C5.614293 0.08939957 11.2789286 0.87878064 15.640625 4.6796875 C19.76893407 9.44859625 20.11559932 13.12323622 20 19.25 C18.35 19.58 16.7 19.91 15 20.25 C15 22.56 15 24.87 15 27.25 C16.65 27.25 18.3 27.25 20 27.25 C20 27.58 20 27.91 20 28.25 C18.02 28.25 16.04 28.25 14 28.25 C14 25.61 14 22.97 14 20.25 C12.68 20.25 11.36 20.25 10 20.25 C9.67 25.53 9.34 30.81 9 36.25 C8.01 36.25 7.02 36.25 6 36.25 C5.67 29.32 5.34 22.39 5 15.25 C2.03 14.92 -0.94 14.59 -4 14.25 C-5 13.25 -5 13.25 -5.1328125 10.5625 C-5.13023438 9.469375 -5.12765625 8.37625 -5.125 7.25 C-5.12757812 6.156875 -5.13015625 5.06375 -5.1328125 3.9375 C-4.9283689 -0.19947634 -3.78423877 0.07883831 0 0 Z M9 8.25 C9 9.9 9 11.55 9 13.25 C10.65 13.25 12.3 13.25 14 13.25 C14 11.6 14 9.95 14 8.25 C12.35 8.25 10.7 8.25 9 8.25 Z " fill="#E7B11F" transform="translate(69,41.75)"/>
<path d="M0 0 C1.07765625 0.00902344 2.1553125 0.01804687 3.265625 0.02734375 C4.08546875 0.03894531 4.9053125 0.05054687 5.75 0.0625 C5.75 0.3925 5.75 0.7225 5.75 1.0625 C4.86957031 1.19527344 3.98914062 1.32804687 3.08203125 1.46484375 C1.33986328 1.72974609 1.33986328 1.72974609 -0.4375 2 C-2.16033203 2.26103516 -2.16033203 2.26103516 -3.91796875 2.52734375 C-6.71325212 2.97629313 -9.47933586 3.48332162 -12.25 4.0625 C-12.25 4.7225 -12.25 5.3825 -12.25 6.0625 C-13.25 7.0625 -14.25 8.0625 -15.25 9.0625 C-16.18937379 11.88062137 -16.3977322 13.74167943 -16.4609375 16.66796875 C-16.48929688 17.56966797 -16.51765625 18.47136719 -16.546875 19.40039062 C-16.59841778 21.28041366 -16.64284333 23.1606471 -16.6796875 25.04101562 C-16.9112035 31.83697501 -18.1921106 36.9467212 -21.25 43.0625 C-23.57156597 43.46979228 -25.9068787 43.80688677 -28.25 44.0625 C-27.92 47.6925 -27.59 51.3225 -27.25 55.0625 C-25.6 55.7225 -23.95 56.3825 -22.25 57.0625 C-19.03776283 59.20399144 -18.54731333 62.04347644 -17.67602539 65.67773438 C-16.74186807 70.90687403 -16.8491261 76.25070484 -16.77148438 81.54882812 C-16.62530952 86.50094698 -16.50901328 90.06243969 -13.25 94.0625 C-9.09049466 97.36563659 -4.35588586 98.11696558 0.75 99.0625 C0.75 99.3925 0.75 99.7225 0.75 100.0625 C-4.84588314 100.35194223 -8.43669255 100.27137163 -13.25 97.0625 C-17.25548538 93.10031717 -19.30865711 89.59317698 -19.49609375 83.9296875 C-19.52896484 83.12273437 -19.56183594 82.31578125 -19.59570312 81.484375 C-19.65605241 79.81000324 -19.71343149 78.13552132 -19.76757812 76.4609375 C-19.99938015 70.93267796 -20.25556193 65.27948893 -22.25 60.0625 C-24.08728303 58.39292272 -24.08728303 58.39292272 -26.375 58 C-27.65375 57.690625 -28.9325 57.38125 -30.25 57.0625 C-30.25 52.7725 -30.25 48.4825 -30.25 44.0625 C-28.23177083 43.28125 -26.21354167 42.5 -24.1953125 41.71875 C-21.15159278 39.12730991 -20.77789116 35.85437177 -20.25 32.0625 C-19.93849057 27.87376492 -19.88482397 23.68345477 -19.859375 19.484375 C-19.69664775 13.59003238 -18.64375116 8.97339538 -15.25 4.0625 C-10.40633258 0.30865775 -5.99335737 -0.06514519 0 0 Z " fill="#EAEAEA" transform="translate(54.25,22.9375)"/>
<path d="M0 0 C1.50046875 0.00386719 1.50046875 0.00386719 3.03125 0.0078125 C4.0315625 0.00523438 5.031875 0.00265625 6.0625 0 C8.53125 0.1328125 8.53125 0.1328125 9.53125 1.1328125 C9.60351502 2.98568752 9.6150622 4.84115128 9.59375 6.6953125 C9.58472656 7.70722656 9.57570313 8.71914063 9.56640625 9.76171875 C9.55480469 10.54417969 9.54320313 11.32664062 9.53125 12.1328125 C4.90203475 13.1489817 1.18662393 12.97077981 -3.46875 12.1328125 C-3.49562279 10.32039198 -3.51508715 8.50786017 -3.53125 6.6953125 C-3.54285156 5.68597656 -3.55445312 4.67664062 -3.56640625 3.63671875 C-3.43556944 0.28206296 -3.34731824 0.18007725 0 0 Z " fill="#EBB311" transform="translate(78.46875,28.8671875)"/>
<path d="M0 0 C0.33 0 0.66 0 1 0 C1.0515625 0.74765625 1.103125 1.4953125 1.15625 2.265625 C1.63024316 8.07737861 1.63024316 8.07737861 4.87890625 12.5859375 C6.89391125 13.54477709 8.88312449 14.30212895 11 15 C12 16 12 16 12.09765625 18.50390625 C12.08605469 19.51324219 12.07445313 20.52257812 12.0625 21.5625 C12.05347656 22.57441406 12.04445313 23.58632812 12.03515625 24.62890625 C12.02355469 25.41136719 12.01195313 26.19382812 12 27 C11.16855469 27.36351562 11.16855469 27.36351562 10.3203125 27.734375 C9.59585938 28.06953125 8.87140625 28.4046875 8.125 28.75 C7.04605469 29.23726562 7.04605469 29.23726562 5.9453125 29.734375 C3.52821263 31.306946 2.9519482 32.28278863 2 35 C0.83556393 41.17988292 0.68906288 47.40989711 0.48242188 53.6796875 C0.44826172 54.45054688 0.41410156 55.22140625 0.37890625 56.015625 C0.3538501 56.70946289 0.32879395 57.40330078 0.30297852 58.11816406 C0 60 0 60 -2 63 C-1.21889502 39.21122564 -1.21889502 39.21122564 1 29 C1.99 29 2.98 29 4 29 C4.33 28.34 4.66 27.68 5 27 C5.99 26.67 6.98 26.34 8 26 C8.495 21.545 8.495 21.545 9 17 C8.34 17 7.68 17 7 17 C7 16.34 7 15.68 7 15 C5.824375 14.8453125 5.824375 14.8453125 4.625 14.6875 C2 14 2 14 0 11 C-0.1953125 8.30078125 -0.1953125 8.30078125 -0.125 5.3125 C-0.10695313 4.31863281 -0.08890625 3.32476562 -0.0703125 2.30078125 C-0.04710938 1.54152344 -0.02390625 0.78226562 0 0 Z " fill="#D6AC44" transform="translate(89,71)"/>
<path d="M0 0 C10.15559294 -0.27081581 10.15559294 -0.27081581 15 2 C15.66 1.67 16.32 1.34 17 1 C17 2.32 17 3.64 17 5 C15.88625 5.0825 14.7725 5.165 13.625 5.25 C9.94246056 5.57873787 9.94246056 5.57873787 8.5625 8.0625 C8.2840625 9.0215625 8.2840625 9.0215625 8 10 C6.68 9.67 5.36 9.34 4 9 C4 9.66 4 10.32 4 11 C2.68 11 1.36 11 0 11 C0 7.37 0 3.74 0 0 Z " fill="#EBB315" transform="translate(66,44)"/>
<path d="M0 0 C4.8887941 0.03133842 8.48099801 1.30534459 12.9375 3.25 C12.6075 3.91 12.2775 4.57 11.9375 5.25 C11.31875 4.940625 10.7 4.63125 10.0625 4.3125 C5.70115941 2.8296442 1.52790119 2.6172321 -3.0625 2.25 C-3.0625 5.88 -3.0625 9.51 -3.0625 13.25 C-1.391875 13.2190625 -1.391875 13.2190625 0.3125 13.1875 C3.9375 13.25 3.9375 13.25 5.9375 14.25 C6.87887255 17.07411765 7.05475382 18.77918032 7.03515625 21.69921875 C7.03193359 22.54677734 7.02871094 23.39433594 7.02539062 24.26757812 C7.01701172 25.14865234 7.00863281 26.02972656 7 26.9375 C6.99548828 27.83017578 6.99097656 28.72285156 6.98632812 29.64257812 C6.97454983 31.84511987 6.95810164 34.04752599 6.9375 36.25 C6.6075 36.25 6.2775 36.25 5.9375 36.25 C5.6075 29.32 5.2775 22.39 4.9375 15.25 C1.9675 14.92 -1.0025 14.59 -4.0625 14.25 C-5.0625 13.25 -5.0625 13.25 -5.1953125 10.5625 C-5.19273438 9.469375 -5.19015625 8.37625 -5.1875 7.25 C-5.19007812 6.156875 -5.19265625 5.06375 -5.1953125 3.9375 C-4.9894929 -0.22732007 -3.80649845 0.07834988 0 0 Z " fill="#CCA43C" transform="translate(69.0625,41.75)"/>
<path d="M0 0 C1 1 1 1 1.09765625 3.06640625 C1.08605469 3.89011719 1.07445313 4.71382812 1.0625 5.5625 C1.05347656 6.38878906 1.04445313 7.21507812 1.03515625 8.06640625 C1.02355469 8.70449219 1.01195313 9.34257813 1 10 C-5.15234375 10.09765625 -5.15234375 10.09765625 -7 10 C-8 9 -8 9 -8.09765625 7.15234375 C-8.06510417 5.1015625 -8.03255208 3.05078125 -8 1 C-5.26752652 -0.36623674 -3.01801098 -0.128426 0 0 Z " fill="#CDAA44" transform="translate(102,40)"/>
<path d="M0 0 C2.2130368 2.2130368 3.48054737 4.60745496 4.98046875 7.33203125 C5.96882571 9.11790354 5.96882571 9.11790354 7.75 10.625 C9 12 9 12 9.5 14.4375 C9 17 9 17 6.625 19.3125 C4 21 4 21 2 21 C1.34 28.59 0.68 36.18 0 44 C-0.33 44 -0.66 44 -1 44 C-1.66376338 22.36623068 -1.66376338 22.36623068 7 13 C6.21625 12.2575 5.4325 11.515 4.625 10.75 C0.96295491 6.91357181 0 5.32682323 0 0 Z " fill="#D2AC3B" transform="translate(76,79)"/>
<path d="M0 0 C0.66 0.33 1.32 0.66 2 1 C1.34 2.98 0.68 4.96 0 7 C-1.98 7.33 -3.96 7.66 -6 8 C-6 10.64 -6 13.28 -6 16 C-3.36 16.33 -0.72 16.66 2 17 C2 17.33 2 17.66 2 18 C0.18757948 18.02687279 -1.62495233 18.04633715 -3.4375 18.0625 C-4.44683594 18.07410156 -5.45617187 18.08570313 -6.49609375 18.09765625 C-9 18 -9 18 -10 17 C-10.07244053 14.98035801 -10.08377188 12.95832876 -10.0625 10.9375 C-10.05347656 9.83277344 -10.04445312 8.72804687 -10.03515625 7.58984375 C-10.02355469 6.73519531 -10.01195312 5.88054687 -10 5 C-9.36191406 4.89042969 -8.72382812 4.78085938 -8.06640625 4.66796875 C-7.24011719 4.50941406 -6.41382812 4.35085937 -5.5625 4.1875 C-4.32693359 3.96126953 -4.32693359 3.96126953 -3.06640625 3.73046875 C-2.38449219 3.48941406 -1.70257813 3.24835938 -1 3 C-0.67 2.01 -0.34 1.02 0 0 Z " fill="#D1A937" transform="translate(74,124)"/>
<path d="M0 0 C1.50046875 0.00386719 1.50046875 0.00386719 3.03125 0.0078125 C4.0315625 0.00523438 5.031875 0.00265625 6.0625 0 C8.53125 0.1328125 8.53125 0.1328125 9.53125 1.1328125 C9.60351502 2.98568752 9.6150622 4.84115128 9.59375 6.6953125 C9.58472656 7.70722656 9.57570313 8.71914063 9.56640625 9.76171875 C9.55480469 10.54417969 9.54320313 11.32664062 9.53125 12.1328125 C9.20125 12.1328125 8.87125 12.1328125 8.53125 12.1328125 C8.20125 9.1628125 7.87125 6.1928125 7.53125 3.1328125 C5.22125 3.1328125 2.91125 3.1328125 0.53125 3.1328125 C0.53125 5.4428125 0.53125 7.7528125 0.53125 10.1328125 C1.19125 10.4628125 1.85125 10.7928125 2.53125 11.1328125 C2.53125 11.7928125 2.53125 12.4528125 2.53125 13.1328125 C-0.43875 12.6378125 -0.43875 12.6378125 -3.46875 12.1328125 C-3.49562279 10.32039198 -3.51508715 8.50786017 -3.53125 6.6953125 C-3.54285156 5.68597656 -3.55445312 4.67664062 -3.56640625 3.63671875 C-3.43556944 0.28206296 -3.34731824 0.18007725 0 0 Z " fill="#D5B043" transform="translate(78.46875,28.8671875)"/>
<path d="M0 0 C0.33 0 0.66 0 1 0 C1.0515625 0.74765625 1.103125 1.4953125 1.15625 2.265625 C1.63785868 8.09981955 1.63785868 8.09981955 4.9140625 12.62109375 C7.35167543 13.85248511 7.35167543 13.85248511 11 15 C11 18.63 11 22.26 11 26 C10.01 26 9.02 26 8 26 C8.495 21.545 8.495 21.545 9 17 C8.34 17 7.68 17 7 17 C7 16.34 7 15.68 7 15 C5.824375 14.8453125 5.824375 14.8453125 4.625 14.6875 C2 14 2 14 0 11 C-0.1953125 8.30078125 -0.1953125 8.30078125 -0.125 5.3125 C-0.10695313 4.31863281 -0.08890625 3.32476562 -0.0703125 2.30078125 C-0.04710938 1.54152344 -0.02390625 0.78226562 0 0 Z " fill="#D9B036" transform="translate(89,71)"/>
<path d="M0 0 C0 2.31 0 4.62 0 7 C-1.99954746 7.04254356 -4.00041636 7.04080783 -6 7 C-7 6 -7 6 -7.0625 2.9375 C-7.041875 1.968125 -7.02125 0.99875 -7 0 C-4.3333581 -1.33332095 -2.83319697 -0.67102033 0 0 Z " fill="#D6B547" transform="translate(101,59)"/>
<path d="M0 0 C4.875 4.625 4.875 4.625 6 8 C6.03954234 10.33299825 6.04401732 12.66708189 6 15 C4.35 15.33 2.7 15.66 1 16 C1.99 15.67 2.98 15.34 4 15 C3.85950482 13.52031676 3.71245174 12.04125484 3.5625 10.5625 C3.48128906 9.73878906 3.40007812 8.91507813 3.31640625 8.06640625 C3.21069185 6.01337975 3.21069185 6.01337975 2 5 C1.67 6.65 1.34 8.3 1 10 C-0.98 10 -2.96 10 -5 10 C-5 9.67 -5 9.34 -5 9 C-3.35 9 -1.7 9 0 9 C0 7.35 0 5.7 0 4 C-1.65 4 -3.3 4 -5 4 C-5 3.67 -5 3.34 -5 3 C-3.35 3 -1.7 3 0 3 C0 2.01 0 1.02 0 0 Z " fill="#D3AC42" transform="translate(83,46)"/>
<path d="M0 0 C2.31 0 4.62 0 7 0 C7 2.31 7 4.62 7 7 C4.69 7 2.38 7 0 7 C-1.125 2.25 -1.125 2.25 0 0 Z " fill="#D7B142" transform="translate(112,27)"/>
<path d="M0 0 C1.98 0 3.96 0 6 0 C6 2.31 6 4.62 6 7 C4.02 7 2.04 7 0 7 C0 4.69 0 2.38 0 0 Z " fill="#E7B21A" transform="translate(96,42)"/>
<path d="M0 0 C0.66 0 1.32 0 2 0 C1.34 6.6 0.68 13.2 0 20 C-0.66 20 -1.32 20 -2 20 C-1.86177801 16.85378318 -1.71314916 13.70814434 -1.5625 10.5625 C-1.52318359 9.66466797 -1.48386719 8.76683594 -1.44335938 7.84179688 C-1.40146484 6.98779297 -1.35957031 6.13378906 -1.31640625 5.25390625 C-1.27974854 4.46314697 -1.24309082 3.6723877 -1.20532227 2.85766602 C-1 1 -1 1 0 0 Z " fill="#EDEDED" transform="translate(50,37)"/>
<path d="M0 0 C0.33 0 0.66 0 1 0 C1 1.65 1 3.3 1 5 C2.65 5 4.3 5 6 5 C5.34 5.66 4.68 6.32 4 7 C1.27130593 6.96712417 -1.2966618 6.43602229 -4 6 C-2.84826645 3.53199953 -1.95216435 1.95216435 0 0 Z " fill="#E4B01E" transform="translate(76,134)"/>
<path d="M0 0 C0.33 0 0.66 0 1 0 C1.33 3.3 1.66 6.6 2 10 C2.78375 10.268125 3.5675 10.53625 4.375 10.8125 C7 12 7 12 9 15 C6.03 14.01 3.06 13.02 0 12 C0 8.04 0 4.08 0 0 Z " fill="#F1F1F1" transform="translate(25,68)"/>
<path d="M0 0 C1.32 0.33 2.64 0.66 4 1 C4 2.32 4 3.64 4 5 C2.68 5 1.36 5 0 5 C0 3.35 0 1.7 0 0 Z " fill="#E4B31C" transform="translate(96,60)"/>
</svg>
