<?xml version="1.0" encoding="UTF-8"?>
<svg version="1.1" xmlns="http://www.w3.org/2000/svg" width="357" height="459">
<path d="M0 0 C117.81 0 235.62 0 357 0 C357 151.47 357 302.94 357 459 C239.19 459 121.38 459 0 459 C0 307.53 0 156.06 0 0 Z " fill="#FEFEFE" transform="translate(0,0)"/>
<path d="M0 0 C4.74375 0.04125 9.4875 0.0825 14.375 0.125 C14.375 12.995 14.375 25.865 14.375 39.125 C3.75 39.375 3.75 39.375 0.43505859 39.42285156 C-5.34691056 39.62438782 -9.18759194 40.05623815 -13.625 44.125 C-18.7954019 49.81674677 -18.28127867 55.85517446 -18.3828125 63.265625 C-18.43475884 65.21785304 -18.48671392 67.1700809 -18.5391674 69.12229538 C-18.60777297 71.84941899 -18.65901771 74.57676253 -18.71020508 77.30426025 C-18.80160259 82.06015485 -18.91329374 86.81554773 -19.03561401 91.57073975 C-19.098863 94.09708486 -19.15284131 96.62368478 -19.19607544 99.15045166 C-19.49724679 112.11172453 -22.3561362 123.33278102 -27.625 135.125 C-28.285 135.125 -28.945 135.125 -29.625 135.125 C-29.98851563 136.22134766 -29.98851563 136.22134766 -30.359375 137.33984375 C-33.04670188 143.25362174 -38.74669805 148.1084348 -44.1875 151.5625 C-45.3940625 152.3359375 -45.3940625 152.3359375 -46.625 153.125 C-46.625 153.785 -46.625 154.445 -46.625 155.125 C-45.1705338 156.36785329 -43.65884277 157.54404794 -42.125 158.6875 C-29.25911248 168.80551056 -22.18593584 181.1732254 -20.21459961 197.53027344 C-19.9175897 201.28985386 -19.69331927 205.04618025 -19.5 208.8125 C-19.42150532 210.17729531 -19.34214768 211.54204123 -19.26196289 212.90673828 C-18.71716248 222.38991281 -18.28407605 231.8802749 -17.96630859 241.3737793 C-17.98504695 254.84318793 -17.98504695 254.84318793 -11.625 266.125 C-3.99887708 270.44646965 6.1837626 269.61304766 14.375 270.125 C14.375 282.665 14.375 295.205 14.375 308.125 C-13.983159 308.56809623 -13.983159 308.56809623 -27.625 305.125 C-28.53765625 304.96644531 -29.4503125 304.80789063 -30.390625 304.64453125 C-39.62877262 302.71265447 -47.52104173 294.75769862 -52.625 287.0625 C-53.32808305 285.769142 -53.99469981 284.45534671 -54.625 283.125 C-55.00140625 282.36832031 -55.3778125 281.61164063 -55.765625 280.83203125 C-61.86359607 267.32631363 -59.90899687 250.50934753 -60.10180664 235.97436523 C-59.61239064 207.21889012 -59.61239064 207.21889012 -71.625 182.125 C-73.28161761 181.10843919 -74.94611559 180.10434924 -76.625 179.125 C-76.625 178.465 -76.625 177.805 -76.625 177.125 C-82.03417799 175.80787155 -87.32450418 174.84327135 -92.875 174.37109375 C-94.625 174.125 -94.625 174.125 -95.625 173.125 C-95.71365208 170.2406618 -95.74021296 167.38037842 -95.72265625 164.49609375 C-95.7212413 163.63186295 -95.71982635 162.76763214 -95.71836853 161.87721252 C-95.71275239 159.10560708 -95.70019719 156.3340812 -95.6875 153.5625 C-95.68248708 151.6881522 -95.67792381 149.81380315 -95.67382812 147.93945312 C-95.66277772 143.33460456 -95.6455023 138.72981579 -95.625 134.125 C-94.8211084 134.07674072 -94.0172168 134.02848145 -93.18896484 133.97875977 C-92.12371582 133.90455811 -91.0584668 133.83035645 -89.9609375 133.75390625 C-88.9095459 133.68502197 -87.8581543 133.6161377 -86.77490234 133.54516602 C-79.93408154 132.63266775 -74.48620485 129.70411374 -70.25 124.25 C-69.3494746 122.89158033 -68.47291733 121.51686429 -67.625 120.125 C-67.04105469 119.23941406 -67.04105469 119.23941406 -66.4453125 118.3359375 C-61.9635369 111.17163927 -61.33207319 103.87141462 -61.28125 95.66796875 C-61.25296796 93.82682233 -61.22464613 91.98567652 -61.19628906 90.14453125 C-61.17943054 88.71488037 -61.17943054 88.71488037 -61.16223145 87.25634766 C-61.09953803 82.29925131 -60.99581172 77.34307 -60.890625 72.38671875 C-60.86997986 71.41092865 -60.84933472 70.43513855 -60.82806396 69.42977905 C-60.65099279 61.48465408 -60.37867394 53.55728689 -59.875 45.625 C-59.82537109 44.60946045 -59.77574219 43.5939209 -59.72460938 42.54760742 C-58.82692443 30.12788457 -53.7408239 20.47992861 -44.625 12.125 C-31.34027622 1.32970782 -16.5661624 -0.20447584 0 0 Z " fill="#3B3738" transform="translate(147.625,47.875)"/>
<path d="M0 0 C44.27149875 -0.50308521 44.27149875 -0.50308521 63 16 C72.73186386 26.01421967 75.09025262 39.79576848 75.125 53.3125 C75.08375 54.859375 75.0425 56.40625 75 58 C69.39 58 63.78 58 58 58 C58 65.92 58 73.84 58 82 C63.54973121 81.96042519 63.54973121 81.96042519 69.09936523 81.90991211 C71.06645974 81.90276909 73.03353621 81.94968107 75 82 C76.54910867 83.54910867 76.14506035 85.04455659 76.17578125 87.19921875 C76.53501371 102.1723042 77.46218657 116.33352041 87.83203125 128.07421875 C90.22513283 130.19998285 92.17992129 131.1242146 95.1875 132.1875 C96.50814453 132.67283203 96.50814453 132.67283203 97.85546875 133.16796875 C101.81324696 134.21518212 105.93106084 134.54789565 110 135 C110 147.87 110 160.74 110 174 C102.575 174.99 102.575 174.99 95 176 C87.53775296 180.04579659 82.52371064 184.17142101 79.71826172 192.4296875 C75.97792682 205.81454333 75.52903638 218.88215005 75.4375 232.6875 C75.34030041 243.98130678 75.13871497 255.21707857 74.13671875 266.47265625 C74.06513046 267.33146896 73.99354218 268.19028168 73.91978455 269.07511902 C73.20254443 276.37591141 71.234984 281.91339744 67 288 C66.44570312 288.81597656 65.89140625 289.63195312 65.3203125 290.47265625 C59.97380485 297.34509849 52.93431202 300.87756534 45 304 C44.03006104 304.38744385 44.03006104 304.38744385 43.04052734 304.78271484 C28.88599082 310.16981173 14.99995181 309.37878666 0 309 C0 296.13 0 283.26 0 270 C4.95 269.67 9.9 269.34 15 269 C23.35358865 267.10646683 23.35358865 267.10646683 30 262 C31.65977642 257.84877227 32.28131652 254.22624993 32.4230957 249.77368164 C32.46686844 248.56124283 32.51064117 247.34880402 32.55574036 246.09962463 C32.59535385 244.79960007 32.63496735 243.4995755 32.67578125 242.16015625 C32.72681029 240.7921378 32.77926034 239.4241717 32.83305359 238.05625916 C33.05884189 232.27764941 33.26851674 226.49865424 33.45092773 220.71850586 C33.56385582 217.17044547 33.6989472 213.62375628 33.84694481 210.07699394 C33.92319331 208.10218297 33.97572471 206.12650035 34.02742004 204.15089417 C34.43332031 194.68909045 36.64011977 186.75831274 40 178 C40.66 178 41.32 178 42 178 C42.103125 177.26394531 42.20625 176.52789062 42.3125 175.76953125 C44.18682516 168.21898275 51.27359695 162.57872707 56.984375 157.7265625 C58.74518171 156.21827458 60.38736486 154.6636679 62 153 C61.26394531 152.73703125 60.52789062 152.4740625 59.76953125 152.203125 C48.7849358 147.43125561 43.15104911 136.39608263 38.68359375 125.91015625 C33.04374785 109.73982318 33.71735092 91.69620142 33.34106445 74.77441406 C34.00755901 57.38022914 34.00755901 57.38022914 26.625 42.6875 C19.23189341 37.93478862 7.66903621 39.40363348 0 39 C0 26.13 0 13.26 0 0 Z " fill="#EEB410" transform="translate(178,108)"/>
<path d="M0 0 C11.88 0 23.76 0 36 0 C36 11.88 36 23.76 36 36 C24.12 36 12.24 36 0 36 C0 24.12 0 12.24 0 0 Z " fill="#EEB514" transform="translate(213,67)"/>
<path d="M0 0 C8.58 0 17.16 0 26 0 C26 8.58 26 17.16 26 26 C17.42 26 8.84 26 0 26 C0 17.42 0 8.84 0 0 Z " fill="#EFB81E" transform="translate(271,102)"/>
<path d="M0 0 C6.6 0 13.2 0 20 0 C20 6.27 20 12.54 20 19 C13.4 19 6.8 19 0 19 C0 12.73 0 6.46 0 0 Z " fill="#EFB71B" transform="translate(271,159)"/>
<path d="M0 0 C6.6 0 13.2 0 20 0 C20 6.27 20 12.54 20 19 C13.4 19 6.8 19 0 19 C0 12.73 0 6.46 0 0 Z " fill="#FDFAEF" transform="translate(217,128)"/>
<path d="M0 0 C5.94 0 11.88 0 18 0 C18 6.27 18 12.54 18 19 C12.06 19 6.12 19 0 19 C0 12.73 0 6.46 0 0 Z " fill="#EEB411" transform="translate(327,60)"/>
<path d="M0 0 C0.33 0 0.66 0 1 0 C1 3.63 1 7.26 1 11 C-4.61 11 -10.22 11 -16 11 C-16 18.92 -16 26.84 -16 35 C-10.45026879 34.96042519 -10.45026879 34.96042519 -4.90063477 34.90991211 C-2.93354026 34.90276909 -0.96646379 34.94968107 1 35 C2 36 2 36 2.11352539 37.94946289 C2.10567017 39.1984436 2.10567017 39.1984436 2.09765625 40.47265625 C2.09443359 41.37177734 2.09121094 42.27089844 2.08789062 43.19726562 C2.07951172 44.14279297 2.07113281 45.08832031 2.0625 46.0625 C2.05798828 47.01189453 2.05347656 47.96128906 2.04882812 48.93945312 C2.0370011 51.29303065 2.02052025 53.64648477 2 56 C1.67 56 1.34 56 1 56 C0.25492456 49.62694402 -0.10349817 43.41688675 0 37 C-1.14339844 37.01160156 -2.28679687 37.02320313 -3.46484375 37.03515625 C-4.95572754 37.04453288 -6.44661309 37.05363321 -7.9375 37.0625 C-8.69224609 37.07087891 -9.44699219 37.07925781 -10.22460938 37.08789062 C-12.14994313 37.09652441 -14.07535581 37.05224333 -16 37 C-17 36 -17 36 -17.11352539 33.49975586 C-17.10828857 32.41573486 -17.10305176 31.33171387 -17.09765625 30.21484375 C-17.09443359 29.04501953 -17.09121094 27.87519531 -17.08789062 26.66992188 C-17.07951172 25.43822266 -17.07113281 24.20652344 -17.0625 22.9375 C-17.05798828 21.70193359 -17.05347656 20.46636719 -17.04882812 19.19335938 C-17.03699618 16.12888587 -17.01906008 13.06443707 -17 10 C-11.39 10 -5.78 10 0 10 C0 6.7 0 3.4 0 0 Z " fill="#F3CD61" transform="translate(252,155)"/>
<path d="M0 0 C0.66 0.33 1.32 0.66 2 1 C-2.62 5.62 -7.24 10.24 -12 15 C-12.66 14.67 -13.32 14.34 -14 14 C-12.60919892 12.41224451 -11.21211596 10.82999061 -9.8125 9.25 C-8.64654297 7.92742187 -8.64654297 7.92742187 -7.45703125 6.578125 C-5.11544754 4.12113732 -2.69841735 2.05137234 0 0 Z " fill="#F0C037" transform="translate(237,264)"/>
<path d="M0 0 C0.66 0.33 1.32 0.66 2 1 C-1.3 4.3 -4.6 7.6 -8 11 C-8 6.67750434 -5.85084926 5.11604454 -3 2 C-2.01 1.34 -1.02 0.68 0 0 Z " fill="#FAECC2" transform="translate(268,286)"/>
<path d="M0 0 C-1.28519565 2.86697492 -2.57129254 4.97607712 -5 7 C-5.66 7 -6.32 7 -7 7 C-3.86206897 0 -3.86206897 0 0 0 Z " fill="#D6D5D5" transform="translate(138,89)"/>
</svg>
