<?xml version="1.0" encoding="UTF-8"?>
<svg version="1.1" xmlns="http://www.w3.org/2000/svg" width="1563" height="1311">
<path d="M0 0 C515.79 0 1031.58 0 1563 0 C1563 432.63 1563 865.26 1563 1311 C1047.21 1311 531.42 1311 0 1311 C0 878.37 0 445.74 0 0 Z " fill="#FEFEFE" transform="translate(0,0)"/>
<path d="M0 0 C1.80102173 0.00374634 1.80102173 0.00374634 3.63842773 0.00756836 C5.14091064 0.01667236 6.64339355 0.02577637 8.19140625 0.03515625 C15.39984375 0.06609375 15.39984375 0.06609375 22.75390625 0.09765625 C22.75390625 12.63765625 22.75390625 25.17765625 22.75390625 38.09765625 C16.81390625 38.42765625 10.87390625 38.75765625 4.75390625 39.09765625 C-3.13232286 41.4959136 -3.13232286 41.4959136 -8.3885498 47.3780365 C-9.30550927 50.28608698 -9.58422084 52.75545149 -9.71679688 55.79907227 C-9.77025269 56.92116592 -9.8237085 58.04325958 -9.87878418 59.19935608 C-9.92780884 60.4045842 -9.9768335 61.60981232 -10.02734375 62.8515625 C-10.08635864 64.10339828 -10.14537354 65.35523407 -10.20617676 66.64500427 C-10.39445038 70.64972814 -10.5715302 74.65481913 -10.74609375 78.66015625 C-10.92074181 82.64047098 -11.0992459 86.62055754 -11.28601074 90.60032654 C-11.40202211 93.0743482 -11.51154551 95.5486859 -11.61340332 98.02333069 C-12.10209035 108.48310203 -12.99375433 118.69323006 -17.43359375 128.28515625 C-17.74256592 128.96513672 -18.05153809 129.64511719 -18.36987305 130.34570312 C-22.93681595 140.05205019 -29.30238035 147.09702953 -38.24609375 153.09765625 C-38.90609375 153.09765625 -39.56609375 153.09765625 -40.24609375 153.09765625 C-40.24609375 153.75765625 -40.24609375 154.41765625 -40.24609375 155.09765625 C-39.52164063 155.34644531 -38.7971875 155.59523438 -38.05078125 155.8515625 C-28.07330109 160.2844541 -21.41329433 170.12981498 -17.03515625 179.76171875 C-10.5882037 196.96975 -10.80624264 215.9709894 -10.73486328 234.0703125 C-10.71907371 236.85310494 -10.68611551 239.63534546 -10.65234375 242.41796875 C-10.65536499 243.24418732 -10.65838623 244.07040588 -10.66149902 244.92166138 C-10.58137017 251.22654125 -10.01873088 258.77607138 -5.82971191 263.79446411 C-1.86401039 267.2144346 1.5444022 268.19785911 6.640625 268.4140625 C7.48584717 268.45217041 8.33106934 268.49027832 9.2019043 268.52954102 C10.80545776 268.59419556 10.80545776 268.59419556 12.44140625 268.66015625 C15.84453125 268.80453125 19.24765625 268.94890625 22.75390625 269.09765625 C22.75390625 281.96765625 22.75390625 294.83765625 22.75390625 308.09765625 C-22.71898354 308.58925506 -22.71898354 308.58925506 -38.09375 295.2578125 C-53.59784375 279.69744255 -52.52878242 257.05900386 -52.74609375 236.66015625 C-52.04957097 209.46986021 -52.04957097 209.46986021 -61.90625 184.890625 C-63.24609375 183.09765625 -63.24609375 183.09765625 -63.24609375 181.09765625 C-70.5083421 177.40021017 -77.0995756 174.72188111 -85.3125 174.2734375 C-87.24609375 174.09765625 -87.24609375 174.09765625 -88.24609375 173.09765625 C-88.33474583 170.21331805 -88.36130671 167.35303467 -88.34375 164.46875 C-88.34233505 163.6045192 -88.3409201 162.74028839 -88.33946228 161.84986877 C-88.33384614 159.07826333 -88.32129094 156.30673745 -88.30859375 153.53515625 C-88.30358083 151.66080845 -88.29901756 149.7864594 -88.29492188 147.91210938 C-88.28387147 143.30726081 -88.26659605 138.70247204 -88.24609375 134.09765625 C-87.50786377 134.04577148 -86.76963379 133.99388672 -86.0090332 133.94042969 C-84.54276489 133.82489746 -84.54276489 133.82489746 -83.046875 133.70703125 C-82.08177002 133.63452148 -81.11666504 133.56201172 -80.12231445 133.48730469 C-72.22698784 132.41770607 -65.48523696 128.28948864 -60.65234375 122.03515625 C-57.02290344 116.34191655 -55.55661687 110.75674773 -54.6015625 104.1796875 C-54.47426758 103.31369934 -54.34697266 102.44771118 -54.21582031 101.55548096 C-52.64009157 89.84712907 -52.77812607 78.07855143 -52.73486328 66.28662109 C-52.53078445 27.62914224 -52.53078445 27.62914224 -39.87109375 14.16015625 C-28.7999309 4.24173921 -14.72818399 -0.06321109 0 0 Z " fill="#3A3637" transform="translate(723.24609375,448.90234375)"/>
<path d="M0 0 C45.60609592 -0.84455733 45.60609592 -0.84455733 61.875 14.125 C69.30764574 22.16466763 72.68952411 31.27792456 74 42 C74.309375 43.8253125 74.309375 43.8253125 74.625 45.6875 C75.04941032 49.43645784 75 53.22709541 75 57 C69.72 57 64.44 57 59 57 C59 65.25 59 73.5 59 82 C64.61 82 70.22 82 76 82 C76.02578125 83.50949219 76.0515625 85.01898437 76.078125 86.57421875 C76.51229795 108.37765709 76.51229795 108.37765709 87 127 C92.96503034 132.00570587 99.59087643 132.83235859 107.15625 133.640625 C110 134 110 134 111 135 C111.10103255 137.79993597 111.13970088 140.57468644 111.1328125 143.375 C111.13376923 144.21466309 111.13472595 145.05432617 111.13571167 145.91943359 C111.13639348 147.69824295 111.13453917 149.47705477 111.13037109 151.25585938 C111.12502283 153.98833776 111.13031605 156.72065176 111.13671875 159.453125 C111.13605797 161.1770837 111.13477681 162.90104229 111.1328125 164.625 C111.13483673 165.44790527 111.13686096 166.27081055 111.13894653 167.11865234 C111.11495054 172.88504946 111.11495054 172.88504946 110 174 C108.35556443 174.10744044 106.70917244 174.18533404 105.0625 174.25 C97.3704634 174.90931742 90.89388144 177.54182033 85.625 183.3125 C76.7257687 194.92675102 75.93676135 208.35097717 75.75390625 222.49609375 C75.72093279 224.29101986 75.68772181 226.08594162 75.65429688 227.88085938 C75.60735799 230.6444164 75.56292467 233.40796051 75.52319336 236.17163086 C75.37641741 245.95288558 75.08550899 255.66945288 74.09375 265.40625 C74.01794205 266.1700145 73.94213409 266.93377899 73.86402893 267.72068787 C72.53554241 279.60885838 68.12574337 289.01123449 59 297 C45.67886439 306.62345384 29.77859345 308.32849972 13.875 308.125 C9.29625 308.08375 4.7175 308.0425 0 308 C0 295.46 0 282.92 0 270 C9.5 269.25 9.5 269.25 12.44335938 269.04394531 C19.14221404 268.44164797 25.13401491 266.95843622 29.9375 262 C32.37843067 257.40530697 32.2619242 252.47668918 32.46484375 247.37890625 C32.54206326 245.63044482 32.61946259 243.88199133 32.69702148 242.13354492 C32.73608612 241.22253021 32.77515076 240.3115155 32.81539917 239.37289429 C35.45978806 178.50700636 35.45978806 178.50700636 52.828125 161.17578125 C56.00166821 158.32649137 58.85265121 156.25677236 63 155 C63 154.34 63 153.68 63 153 C62.28585937 152.76023437 61.57171875 152.52046875 60.8359375 152.2734375 C50.17727479 147.48731623 43.43056052 137.0727079 39.015625 126.68359375 C33.44436444 110.33933446 33.42516498 92.23756831 32.9375 75.1875 C32.84164494 71.95281416 32.74215737 68.71842992 32.63172913 65.48420715 C32.56395329 63.49334529 32.50442078 61.5021794 32.45457458 59.51078796 C32.25790345 53.65625651 32.00252575 48.48589403 28.1875 43.75 C24.38586498 40.70869199 20.72690634 39.76295361 15.91796875 39.5859375 C15.0777417 39.55032715 14.23751465 39.5147168 13.37182617 39.47802734 C11.79558472 39.42702881 11.79558472 39.42702881 10.1875 39.375 C6.825625 39.25125 3.46375 39.1275 0 39 C0 26.13 0 13.26 0 0 Z " fill="#EEB30F" transform="translate(761,509)"/>
<path d="M0 0 C11.88 0 23.76 0 36 0 C36 11.88 36 23.76 36 36 C24.12 36 12.24 36 0 36 C0 24.12 0 12.24 0 0 Z " fill="#EEB412" transform="translate(796,467)"/>
<path d="M0 0 C8.58 0 17.16 0 26 0 C26 8.58 26 17.16 26 26 C21.895625 26.020625 17.79125 26.04125 13.5625 26.0625 C11.61839233 26.07615601 11.61839233 26.07615601 9.63500977 26.09008789 C8.11605103 26.09383423 8.11605103 26.09383423 6.56640625 26.09765625 C5.00321655 26.10551147 5.00321655 26.10551147 3.40844727 26.11352539 C1 26 1 26 0 25 C-0.08737645 23.14630389 -0.10698153 21.28932459 -0.09765625 19.43359375 C-0.09515869 18.42095459 -0.09266113 17.40831543 -0.09008789 16.36499023 C-0.08098389 15.06891846 -0.07187988 13.77284668 -0.0625 12.4375 C-0.041875 8.333125 -0.02125 4.22875 0 0 Z " fill="#EEB71A" transform="translate(854,503)"/>
<path d="M0 0 C6.6 0 13.2 0 20 0 C20 6.6 20 13.2 20 20 C13.4 20 6.8 20 0 20 C0 13.4 0 6.8 0 0 Z " fill="#FDF9ED" transform="translate(800,528)"/>
<path d="M0 0 C1.18613892 0.00785522 1.18613892 0.00785522 2.39624023 0.01586914 C3.16524658 0.0183667 3.93425293 0.02086426 4.7265625 0.0234375 C5.70939209 0.0325415 6.69222168 0.04164551 7.70483398 0.05102539 C12.37639648 0.08196289 12.37639648 0.08196289 17.14233398 0.11352539 C17.14233398 6.71352539 17.14233398 13.31352539 17.14233398 20.11352539 C10.54233398 20.11352539 3.94233398 20.11352539 -2.85766602 20.11352539 C-2.88860352 15.44196289 -2.88860352 15.44196289 -2.92016602 10.67602539 C-2.92927002 9.6931958 -2.93837402 8.71036621 -2.94775391 7.69775391 C-2.95025146 6.92874756 -2.95274902 6.15974121 -2.95532227 5.36743164 C-2.96317749 4.18129272 -2.96317749 4.18129272 -2.97119141 2.97119141 C-2.81664371 0.44225938 -2.52893203 0.15454769 0 0 Z " fill="#EFB81E" transform="translate(856.857666015625,558.886474609375)"/>
<path d="M0 0 C6.27 0 12.54 0 19 0 C19 6.27 19 12.54 19 19 C12.73 19 6.46 19 0 19 C0 12.73 0 6.46 0 0 Z " fill="#EEB410" transform="translate(910,461)"/>
</svg>
