<?xml version="1.0" encoding="UTF-8"?>
<svg version="1.1" xmlns="http://www.w3.org/2000/svg" width="133" height="167">
<path d="M0 0 C4.95 0 9.9 0 15 0 C15 4.95 15 9.9 15 15 C12.36 15.33 9.72 15.66 7 16 C7.928125 16.680625 8.85625 17.36125 9.8125 18.0625 C13.24144411 20.95643155 14.69471011 23.64903371 16 28 C16.21678759 31.02057374 16.18497012 33.97882137 16 37 C14.02 37 12.04 37 10 37 C10 38.98 10 40.96 10 43 C10.969375 42.979375 11.93875 42.95875 12.9375 42.9375 C16 43 16 43 17 44 C17.37347673 46.1183133 17.69909629 48.24516595 18 50.375 C18.47744002 53.73946018 18.92498099 56.77494297 20 60 C22.10584438 60.80563638 22.10584438 60.80563638 24.5625 61.1875 C26.026875 61.455625 27.49125 61.72375 29 62 C29 66.95 29 71.9 29 77 C26.72135417 77.87890625 24.44270833 78.7578125 22.1640625 79.63671875 C19.32725555 81.42380471 19.02390075 82.83863335 18 86 C17.59798323 88.77938444 17.59798323 88.77938444 17.47265625 91.7109375 C17.40240234 92.79117188 17.33214844 93.87140625 17.25976562 94.984375 C17.12872123 97.23678165 17.00109221 99.48938972 16.87695312 101.7421875 C16.40341092 108.90931275 15.65938259 114.31777795 11.375 120.25 C4.23364171 125.51205348 -3.43200385 125.29544814 -12 125 C-12 119.72 -12 114.44 -12 109 C-8.97265625 108.26757812 -8.97265625 108.26757812 -5.9453125 107.53515625 C-3.9414343 107.05153008 -3.9414343 107.05153008 -2 106 C-1.96261719 104.75605469 -1.92523438 103.51210937 -1.88671875 102.23046875 C-1.02806952 78.76386833 -1.02806952 78.76386833 7 69 C6.236875 68.236875 5.47375 67.47375 4.6875 66.6875 C-1.57947871 58.98248934 -1.40778383 48.8530539 -1.53417969 39.37426758 C-1.5868359 37.24449655 -1.7828474 35.11932585 -2 33 C-5.38569507 30.43126321 -5.38569507 30.43126321 -12 30 C-12 24.72 -12 19.44 -12 14 C-4 14 -4 14 0 15 C0 10.05 0 5.1 0 0 Z M4 24 C4 25.32 4 26.64 4 28 C5.32 28 6.64 28 8 28 C8 26.68 8 25.36 8 24 C6.68 24 5.36 24 4 24 Z " fill="#EDB71E" transform="translate(76,30)"/>
<path d="M0 0 C0.73154297 0.01353516 1.46308594 0.02707031 2.21679688 0.04101562 C3.99902422 0.07596126 5.78086573 0.12975195 7.5625 0.1875 C7.5625 5.1375 7.5625 10.0875 7.5625 15.1875 C4.2625 15.8475 0.9625 16.5075 -2.4375 17.1875 C-2.60185547 19.52134766 -2.60185547 19.52134766 -2.76953125 21.90234375 C-2.92909008 23.97660854 -3.0892799 26.05082486 -3.25 28.125 C-3.32025391 29.14658203 -3.39050781 30.16816406 -3.46289062 31.22070312 C-4.19075408 40.3335536 -5.94237185 47.79750007 -11.4375 55.1875 C-10.839375 55.80625 -10.24125 56.425 -9.625 57.0625 C-2.62619101 67.06079856 -3.20395916 80.45855993 -3.4375 92.1875 C-2.72722656 92.24808594 -2.01695313 92.30867188 -1.28515625 92.37109375 C0.09349609 92.49677734 0.09349609 92.49677734 1.5 92.625 C2.41652344 92.70621094 3.33304688 92.78742188 4.27734375 92.87109375 C6.5625 93.1875 6.5625 93.1875 7.5625 94.1875 C7.66225032 96.69886104 7.70132183 99.17653415 7.6875 101.6875 C7.69330078 102.74130859 7.69330078 102.74130859 7.69921875 103.81640625 C7.68911378 109.06088622 7.68911378 109.06088622 6.5625 110.1875 C-9.66104361 110.45502604 -9.66104361 110.45502604 -16.0234375 105.578125 C-22.55145028 99.15831133 -21.69213059 90.36068463 -21.95507812 81.84375 C-22.18717741 76.06316394 -23.03362257 70.80300972 -24.4375 65.1875 C-27.4075 64.5275 -30.3775 63.8675 -33.4375 63.1875 C-33.4375 57.9075 -33.4375 52.6275 -33.4375 47.1875 C-31.41927083 46.50390625 -29.40104167 45.8203125 -27.3828125 45.13671875 C-25.09755095 44.22414453 -25.09755095 44.22414453 -23.4375 41.1875 C-22.02435474 35.11928802 -22.1087187 28.821807 -21.91992188 22.61914062 C-21.62326927 15.21402003 -21.01884218 8.6179951 -15.4375 3.1875 C-10.08534602 0.39069773 -5.98113754 -0.21341662 0 0 Z " fill="#3E3B3C" transform="translate(53.4375,23.8125)"/>
<path d="M0 0 C0.73154297 0.01353516 1.46308594 0.02707031 2.21679688 0.04101562 C3.99902422 0.07596126 5.78086573 0.12975195 7.5625 0.1875 C7.5625 5.1375 7.5625 10.0875 7.5625 15.1875 C4.2625 15.8475 0.9625 16.5075 -2.4375 17.1875 C-2.60185547 19.52134766 -2.60185547 19.52134766 -2.76953125 21.90234375 C-2.92909008 23.97660854 -3.0892799 26.05082486 -3.25 28.125 C-3.32025391 29.14658203 -3.39050781 30.16816406 -3.46289062 31.22070312 C-4.19075408 40.3335536 -5.94237185 47.79750007 -11.4375 55.1875 C-10.839375 55.80625 -10.24125 56.425 -9.625 57.0625 C-2.62619101 67.06079856 -3.20395916 80.45855993 -3.4375 92.1875 C-2.72722656 92.24808594 -2.01695313 92.30867188 -1.28515625 92.37109375 C0.09349609 92.49677734 0.09349609 92.49677734 1.5 92.625 C2.41652344 92.70621094 3.33304688 92.78742188 4.27734375 92.87109375 C6.5625 93.1875 6.5625 93.1875 7.5625 94.1875 C7.66225032 96.69886104 7.70132183 99.17653415 7.6875 101.6875 C7.69330078 102.74130859 7.69330078 102.74130859 7.69921875 103.81640625 C7.68911378 109.06088622 7.68911378 109.06088622 6.5625 110.1875 C-9.66104361 110.45502604 -9.66104361 110.45502604 -16.0234375 105.578125 C-22.55145028 99.15831133 -21.69213059 90.36068463 -21.95507812 81.84375 C-22.18717741 76.06316394 -23.03362257 70.80300972 -24.4375 65.1875 C-27.4075 64.5275 -30.3775 63.8675 -33.4375 63.1875 C-33.4375 57.9075 -33.4375 52.6275 -33.4375 47.1875 C-31.41927083 46.50390625 -29.40104167 45.8203125 -27.3828125 45.13671875 C-25.09755095 44.22414453 -25.09755095 44.22414453 -23.4375 41.1875 C-22.02435474 35.11928802 -22.1087187 28.821807 -21.91992188 22.61914062 C-21.62326927 15.21402003 -21.01884218 8.6179951 -15.4375 3.1875 C-10.08534602 0.39069773 -5.98113754 -0.21341662 0 0 Z M-15.4375 5.1875 C-21.29133949 12.62145196 -20.23689794 21.71025673 -20.48242188 30.78125 C-20.53849609 32.04195312 -20.59457031 33.30265625 -20.65234375 34.6015625 C-20.68448975 35.7457666 -20.71663574 36.8899707 -20.74975586 38.06884766 C-21.65394653 42.16900087 -23.15794794 43.6188245 -26.4375 46.1875 C-28.4175 46.8475 -30.3975 47.5075 -32.4375 48.1875 C-32.4375 52.4775 -32.4375 56.7675 -32.4375 61.1875 C-30.5503125 61.80625 -30.5503125 61.80625 -28.625 62.4375 C-25.00392586 63.62473742 -23.19835639 64.74680821 -21.4375 68.1875 C-20.97655867 71.3698789 -20.93048589 74.53831147 -20.875 77.75 C-20.99821343 90.9570882 -20.99821343 90.9570882 -16.0625 102.75 C-9.69854848 108.65938355 -2.74344371 108.31334763 5.5625 108.1875 C5.5625 103.8975 5.5625 99.6075 5.5625 95.1875 C3.9228125 95.001875 3.9228125 95.001875 2.25 94.8125 C-1.4375 94.1875 -1.4375 94.1875 -4.4375 92.1875 C-4.74961588 89.36345152 -4.89712625 86.70433448 -4.9375 83.875 C-4.98272471 69.94593475 -4.98272471 69.94593475 -11 58.0625 C-11.804375 57.44375 -12.60875 56.825 -13.4375 56.1875 C-14.0975 55.1975 -14.7575 54.2075 -15.4375 53.1875 C-14.6021875 52.9090625 -14.6021875 52.9090625 -13.75 52.625 C-10.29325571 50.47621301 -8.20052216 47.79553632 -6.4375 44.1875 C-5.61687231 40.16179956 -5.42141325 36.16151251 -5.25 32.0625 C-5.13860715 29.93451248 -5.02036086 27.80687019 -4.89453125 25.6796875 C-4.85303955 24.74495605 -4.81154785 23.81022461 -4.76879883 22.84716797 C-4.41592619 20.01430541 -3.60578888 17.78128334 -2.4375 15.1875 C0.2025 14.8575 2.8425 14.5275 5.5625 14.1875 C5.5625 9.8975 5.5625 5.6075 5.5625 1.1875 C-5.71191273 0.35291705 -5.71191273 0.35291705 -15.4375 5.1875 Z " fill="#D7D7D7" transform="translate(53.4375,23.8125)"/>
<path d="M0 0 C4.95 0 9.9 0 15 0 C15 4.95 15 9.9 15 15 C12.36 15.33 9.72 15.66 7 16 C8.98 17.65 10.96 19.3 13 21 C12.67 21.66 12.34 22.32 12 23 C11.38125 22.67 10.7625 22.34 10.125 22 C8.08981656 20.85806765 8.08981656 20.85806765 6 21 C6 20.34 6 19.68 6 19 C0.3443706 17.65155132 -5.2190275 16.63065155 -11 16 C-10.67 19.96 -10.34 23.92 -10 28 C-8.55625 28.28875 -7.1125 28.5775 -5.625 28.875 C-1.25 29.75 -1.25 29.75 1 32 C1.27124023 34.21142578 1.27124023 34.21142578 1.30859375 36.9453125 C1.34629883 38.43804687 1.34629883 38.43804687 1.38476562 39.9609375 C1.41953032 42.04681938 1.45086048 44.13276174 1.47851562 46.21875 C1.67464228 53.66199564 2.20789474 60.42774907 7.6875 66 C8.8321875 66.99 8.8321875 66.99 10 68 C9.67 68.66 9.34 69.32 9 70 C3.00889186 65.73965643 1.24308439 61.84009456 -0.55078125 54.85546875 C-1.33926047 49.84348348 -1.32420127 44.75265338 -1.4296875 39.68554688 C-1.460625 38.85732422 -1.4915625 38.02910156 -1.5234375 37.17578125 C-1.54325684 36.42208252 -1.56307617 35.66838379 -1.58349609 34.8918457 C-1.86056942 32.59221882 -1.86056942 32.59221882 -5 31 C-7.31 30.67 -9.62 30.34 -12 30 C-12 24.72 -12 19.44 -12 14 C-4 14 -4 14 0 15 C0 10.05 0 5.1 0 0 Z " fill="#EDE6D4" transform="translate(76,30)"/>
<path d="M0 0 C6.33393082 -0.34548714 11.10261508 0.70657253 17 3 C17 3.66 17 4.32 17 5 C17.556875 4.7525 18.11375 4.505 18.6875 4.25 C21 4 21 4 23.6875 5.6875 C26.57586456 8.57586456 26.93190761 10.35488796 27.09765625 14.359375 C27.08605469 15.14828125 27.07445313 15.9371875 27.0625 16.75 C27.05347656 17.54921875 27.04445313 18.3484375 27.03515625 19.171875 C27.02355469 19.77515625 27.01195313 20.3784375 27 21 C25.02 21 23.04 21 21 21 C21 22.98 21 24.96 21 27 C22.4540625 26.9690625 22.4540625 26.9690625 23.9375 26.9375 C27 27 27 27 28 28 C28.39947945 30.1169495 28.74499867 32.24421331 29.0625 34.375 C29.23910156 35.53773437 29.41570312 36.70046875 29.59765625 37.8984375 C30 41 30 41 30 44 C27.1496974 40.79054398 26.56548301 38.50011452 26.3125 34.25 C26.21388672 32.77273437 26.21388672 32.77273437 26.11328125 31.265625 C26.07589844 30.51796875 26.03851563 29.7703125 26 29 C24.02 29 22.04 29 20 29 C20 26.03 20 23.06 20 20 C21.65 19.67 23.3 19.34 25 19 C24.505 14.05 24.505 14.05 24 9 C23.34 9 22.68 9 22 9 C21.67 10.65 21.34 12.3 21 14 C15.49182888 14.7223831 10.84923173 15.2839491 5.375 14.0625 C4.57835938 13.88847656 3.78171875 13.71445312 2.9609375 13.53515625 C1 13 1 13 0 12 C-0.07244053 9.98035801 -0.08377188 7.95832876 -0.0625 5.9375 C-0.05347656 4.83277344 -0.04445313 3.72804687 -0.03515625 2.58984375 C-0.02355469 1.73519531 -0.01195313 0.88054688 0 0 Z M15 8 C15 9.32 15 10.64 15 12 C16.32 12 17.64 12 19 12 C19 10.68 19 9.36 19 8 C17.68 8 16.36 8 15 8 Z " fill="#EAB931" transform="translate(65,46)"/>
<path d="M0 0 C4.455 0.99 4.455 0.99 9 2 C9 6.95 9 11.9 9 17 C6.72135417 17.87890625 4.44270833 18.7578125 2.1640625 19.63671875 C-0.67274445 21.42380471 -0.97609925 22.83863335 -2 26 C-2.40201677 28.77938444 -2.40201677 28.77938444 -2.52734375 31.7109375 C-2.59759766 32.79117188 -2.66785156 33.87140625 -2.74023438 34.984375 C-2.87127877 37.23678165 -2.99890779 39.48938972 -3.12304688 41.7421875 C-3.59658908 48.90931275 -4.34061741 54.31777795 -8.625 60.25 C-15.76635829 65.51205348 -23.43200385 65.29544814 -32 65 C-32 59.72 -32 54.44 -32 49 C-31.34 49.33 -30.68 49.66 -30 50 C-30.33 54.29 -30.66 58.58 -31 63 C-19.92009665 62.5382107 -19.92009665 62.5382107 -10 58 C-5.17966892 51.07077407 -5.75107221 42.29824961 -5.5703125 34.1640625 C-5.33059316 27.93135961 -4.56922424 21.74050586 -0.125 17 C2 16 2 16 7 16 C7 11.71 7 7.42 7 3 C5.02 2.67 3.04 2.34 1 2 C0.505 1.01 0.505 1.01 0 0 Z " fill="#F5EDD4" transform="translate(96,90)"/>
<path d="M0 0 C1.50046875 0.00386719 1.50046875 0.00386719 3.03125 0.0078125 C4.0315625 0.00523438 5.031875 0.00265625 6.0625 0 C8.53125 0.1328125 8.53125 0.1328125 9.53125 1.1328125 C9.67435287 4.8019702 9.57346662 8.45996691 9.53125 12.1328125 C5.24125 12.1328125 0.95125 12.1328125 -3.46875 12.1328125 C-3.56640625 3.63671875 -3.56640625 3.63671875 -3.46875 1.1328125 C-2.46875 0.1328125 -2.46875 0.1328125 0 0 Z " fill="#EDB20F" transform="translate(80.46875,30.8671875)"/>
<path d="M0 0 C0.66 0 1.32 0 2 0 C3.60725635 3.21451269 3.05748185 6.43612536 3 10 C1.02 10.33 -0.96 10.66 -3 11 C-2.9175 11.9075 -2.835 12.815 -2.75 13.75 C-3 17 -3 17 -4.875 19.375 C-7 21 -7 21 -9 21 C-9.19389096 18.5211787 -9.38040123 16.04219069 -9.5625 13.5625 C-9.61857422 12.85544922 -9.67464844 12.14839844 -9.73242188 11.41992188 C-9.86190993 9.61572163 -9.93521608 7.80768048 -10 6 C-9 5 -9 5 -7.15234375 4.90234375 C-5.1015625 4.93489583 -3.05078125 4.96744792 -1 5 C-0.67 3.35 -0.34 1.7 0 0 Z " fill="#ECB310" transform="translate(87,55)"/>
<path d="M0 0 C3.96 0 7.92 0 12 0 C12 3.63 12 7.26 12 11 C8.04 11 4.08 11 0 11 C0 7.37 0 3.74 0 0 Z " fill="#F1E8CF" transform="translate(96,43)"/>
<path d="M0 0 C0.99 0.33 1.98 0.66 3 1 C3 1.66 3 2.32 3 3 C1.68 3.33 0.36 3.66 -1 4 C-1.33 5.98 -1.66 7.96 -2 10 C-5.3 9.67 -8.6 9.34 -12 9 C-12 6.69 -12 4.38 -12 2 C-11.34 1.67 -10.68 1.34 -10 1 C-9.01 1.33 -8.02 1.66 -7 2 C-7 1.34 -7 0.68 -7 0 C-4.30224476 -1.34887762 -2.88231982 -0.70300484 0 0 Z " fill="#EEB30D" transform="translate(79,48)"/>
<path d="M0 0 C3.3 0 6.6 0 10 0 C10.09765625 6.93359375 10.09765625 6.93359375 10 9 C9 10 9 10 7.1875 10.1328125 C6.465625 10.13023438 5.74375 10.12765625 5 10.125 C4.278125 10.12757812 3.55625 10.13015625 2.8125 10.1328125 C1 10 1 10 0 9 C-0.14193337 5.99668982 -0.04236378 3.00782866 0 0 Z " fill="#F9F4E7" transform="translate(96,62)"/>
<path d="M0 0 C1.41569064 -0.08167446 2.83276805 -0.13949698 4.25 -0.1875 C5.43335937 -0.23970703 5.43335937 -0.23970703 6.640625 -0.29296875 C9.63821713 0.07924882 10.82220688 0.92295486 13 3 C13.49829102 5.32495117 13.49829102 5.32495117 13.50390625 8.04296875 C13.52259766 9.03490234 13.54128906 10.02683594 13.56054688 11.04882812 C13.56119141 12.08458984 13.56183594 13.12035156 13.5625 14.1875 C13.50836483 26.60313088 13.50836483 26.60313088 19.6875 37 C20.450625 37.66 21.21375 38.32 22 39 C21.67 39.66 21.34 40.32 21 41 C15.00889186 36.73965643 13.24308439 32.84009456 11.44921875 25.85546875 C10.66073953 20.84348348 10.67579873 15.75265338 10.5703125 10.68554688 C10.539375 9.85732422 10.5084375 9.02910156 10.4765625 8.17578125 C10.45674316 7.42208252 10.43692383 6.66838379 10.41650391 5.8918457 C10.13943058 3.59221882 10.13943058 3.59221882 7 2 C4.67612053 1.60612212 2.34206251 1.26513915 0 1 C0 0.67 0 0.34 0 0 Z " fill="#F4E7C3" transform="translate(64,59)"/>
<path d="M0 0 C3.3 0 6.6 0 10 0 C10 2.97 10 5.94 10 9 C3.06640625 9.09765625 3.06640625 9.09765625 1 9 C0 8 0 8 -0.09765625 6.15234375 C-0.06510417 4.1015625 -0.03255208 2.05078125 0 0 Z " fill="#F3EBD3" transform="translate(115,28)"/>
<path d="M0 0 C2 1 2 1 2.62109375 2.765625 C3.02399618 5.14150323 3.09791478 7.34179517 3.0625 9.75 C3.05347656 10.54921875 3.04445313 11.3484375 3.03515625 12.171875 C3.01775391 13.07679687 3.01775391 13.07679687 3 14 C1.02 14 -0.96 14 -3 14 C-3 15.98 -3 17.96 -3 20 C-1.5459375 19.9690625 -1.5459375 19.9690625 -0.0625 19.9375 C3 20 3 20 4 21 C4.39947945 23.1169495 4.74499867 25.24421331 5.0625 27.375 C5.23910156 28.53773437 5.41570312 29.70046875 5.59765625 30.8984375 C6 34 6 34 6 37 C3.1496974 33.79054398 2.56548301 31.50011452 2.3125 27.25 C2.21388672 25.77273437 2.21388672 25.77273437 2.11328125 24.265625 C2.05720703 23.14414063 2.05720703 23.14414063 2 22 C0.02 22 -1.96 22 -4 22 C-4 19.03 -4 16.06 -4 13 C-2.35 12.67 -0.7 12.34 1 12 C0.67 8.04 0.34 4.08 0 0 Z " fill="#EDE1C0" transform="translate(89,53)"/>
<path d="M0 0 C0.99 0.495 0.99 0.495 2 1 C1.67 5.29 1.34 9.58 1 14 C8.17938134 13.6699135 13.76797297 13.18472923 20.16015625 9.83984375 C22 9 22 9 25 9 C21.50212455 13.4103647 17.37664345 14.93414557 12 16 C7.96043691 16.22792253 4.0521644 16.13972981 0 16 C0 10.72 0 5.44 0 0 Z " fill="#F1ECDF" transform="translate(64,139)"/>
<path d="M0 0 C2.64 0 5.28 0 8 0 C8 2.64 8 5.28 8 8 C5.36 8 2.72 8 0 8 C0 5.36 0 2.72 0 0 Z " fill="#E9B61E" transform="translate(98,44)"/>
<path d="M0 0 C0.33 0 0.66 0 1 0 C1.51271617 26.97456765 1.51271617 26.97456765 -2 34 C-2.99 33.67 -3.98 33.34 -5 33 C-4.690625 32.46375 -4.38125 31.9275 -4.0625 31.375 C-1.23621349 25.0574184 -1.67470921 17.61978666 -1.39453125 10.8125 C-1.35714844 9.99523437 -1.31976563 9.17796875 -1.28125 8.3359375 C-1.25095703 7.59907715 -1.22066406 6.8622168 -1.18945312 6.10302734 C-0.99824811 3.98055311 -0.57193026 2.0498027 0 0 Z " fill="#F4ECD7" transform="translate(92,113)"/>
<path d="M0 0 C0 0.66 0 1.32 0 2 C-2.64 2.33 -5.28 2.66 -8 3 C-8 6.63 -8 10.26 -8 14 C-6.35 13.67 -4.7 13.34 -3 13 C-1.56371543 12.93733488 -0.1249445 12.91313653 1.3125 12.9375 C3.1378125 12.9684375 3.1378125 12.9684375 5 13 C1.47320901 15.35119399 -0.02879485 15.21443452 -4.1875 15.125 C-5.27417969 15.10695312 -6.36085938 15.08890625 -7.48046875 15.0703125 C-8.72763672 15.03550781 -8.72763672 15.03550781 -10 15 C-10.02685938 12.85423363 -10.04633088 10.70837355 -10.0625 8.5625 C-10.07410156 7.36753906 -10.08570312 6.17257813 -10.09765625 4.94140625 C-10 2 -10 2 -9 1 C-2.88888889 0 -2.88888889 0 0 0 Z " fill="#E9BD46" transform="translate(75,138)"/>
<path d="M0 0 C1.50046875 0.00386719 1.50046875 0.00386719 3.03125 0.0078125 C4.0315625 0.00523438 5.031875 0.00265625 6.0625 0 C8.53125 0.1328125 8.53125 0.1328125 9.53125 1.1328125 C9.60351502 2.98568752 9.6150622 4.84115128 9.59375 6.6953125 C9.58472656 7.70722656 9.57570313 8.71914063 9.56640625 9.76171875 C9.55480469 10.54417969 9.54320313 11.32664062 9.53125 12.1328125 C9.20125 12.1328125 8.87125 12.1328125 8.53125 12.1328125 C8.53125 8.8328125 8.53125 5.5328125 8.53125 2.1328125 C5.23125 2.1328125 1.93125 2.1328125 -1.46875 2.1328125 C-1.46875 5.4328125 -1.46875 8.7328125 -1.46875 12.1328125 C-2.12875 12.1328125 -2.78875 12.1328125 -3.46875 12.1328125 C-3.49562279 10.32039198 -3.51508715 8.50786017 -3.53125 6.6953125 C-3.54285156 5.68597656 -3.55445312 4.67664062 -3.56640625 3.63671875 C-3.43556944 0.28206296 -3.34731824 0.18007725 0 0 Z " fill="#E9C255" transform="translate(80.46875,30.8671875)"/>
<path d="M0 0 C1.98 0 3.96 0 6 0 C6 2.31 6 4.62 6 7 C4.02 7 2.04 7 0 7 C0 4.69 0 2.38 0 0 Z " fill="#E9BB35" transform="translate(98,63)"/>
<path d="M0 0 C3 0.125 3 0.125 4 1.125 C4.04080783 3.12458364 4.04254356 5.12545254 4 7.125 C1.36 7.125 -1.28 7.125 -4 7.125 C-4.04254356 5.12545254 -4.04080783 3.12458364 -4 1.125 C-3 0.125 -3 0.125 0 0 Z M-2 2.125 C-2 3.445 -2 4.765 -2 6.125 C-0.68 6.125 0.64 6.125 2 6.125 C2 4.805 2 3.485 2 2.125 C0.68 2.125 -0.64 2.125 -2 2.125 Z " fill="#F4E6C1" transform="translate(82,51.875)"/>
<path d="M0 0 C1.4370809 -0.05422947 2.87475462 -0.09289723 4.3125 -0.125 C5.11300781 -0.14820313 5.91351563 -0.17140625 6.73828125 -0.1953125 C9 0 9 0 12 2 C12.34057617 4.15478516 12.34057617 4.15478516 12.29296875 6.7890625 C12.28330078 7.73007813 12.27363281 8.67109375 12.26367188 9.640625 C12.23853516 10.62546875 12.21339844 11.6103125 12.1875 12.625 C12.17396484 13.61757812 12.16042969 14.61015625 12.14648438 15.6328125 C12.11105743 18.08908072 12.06166196 20.54427285 12 23 C11.67 23 11.34 23 11 23 C10.98541748 22.43490723 10.97083496 21.86981445 10.95581055 21.28759766 C10.88143942 18.73269981 10.78474758 16.17912502 10.6875 13.625 C10.66494141 12.73554687 10.64238281 11.84609375 10.61914062 10.9296875 C10.58369141 10.07890625 10.54824219 9.228125 10.51171875 8.3515625 C10.48553467 7.56604004 10.45935059 6.78051758 10.43237305 5.97119141 C10.15110403 3.59959844 10.15110403 3.59959844 7 2 C4.67612053 1.60612212 2.34206251 1.26513915 0 1 C0 0.67 0 0.34 0 0 Z " fill="#F1EEE6" transform="translate(64,59)"/>
<path d="M0 0 C8.62242152 -0.76681614 8.62242152 -0.76681614 12 1.11328125 C13.625 2.5 13.625 2.5 16 5 C15.67 5.66 15.34 6.32 15 7 C14.38125 6.67 13.7625 6.34 13.125 6 C11.08981656 4.85806765 11.08981656 4.85806765 9 5 C9 4.34 9 3.68 9 3 C4.545 2.01 4.545 2.01 0 1 C0 0.67 0 0.34 0 0 Z " fill="#EDD284" transform="translate(73,46)"/>
<path d="M0 0 C1.98 0 3.96 0 6 0 C6 1.98 6 3.96 6 6 C4.02 6 2.04 6 0 6 C0 4.02 0 2.04 0 0 Z " fill="#EAB626" transform="translate(117,29)"/>
<path d="M0 0 C2.8097586 1.36077995 5.47615865 2.84825102 8.125 4.5 C8.80820312 4.9228125 9.49140625 5.345625 10.1953125 5.78125 C12 7 12 7 14 9 C9.00232235 8.5240307 5.92949742 7.12573658 2 4 C0.625 1.75 0.625 1.75 0 0 Z " fill="#E8E8E8" transform="translate(34,124)"/>
<path d="M0 0 C1.32 0 2.64 0 4 0 C4.375 2.0625 4.375 2.0625 4 5 C2.20822891 7.53572282 0.15761879 9.77174488 -2 12 C-2 8.08087178 -0.4275386 6.95856266 2 4 C2 3.34 2 2.68 2 2 C1.34 1.34 0.68 0.68 0 0 Z " fill="#EABE3D" transform="translate(83,96)"/>
<path d="M0 0 C7.50769231 0.61538462 7.50769231 0.61538462 10 2.5625 C10.33 3.036875 10.66 3.51125 11 4 C10.67 4.99 10.34 5.98 10 7 C9.67 6.01 9.34 5.02 9 4 C6.89415562 3.19436362 6.89415562 3.19436362 4.4375 2.8125 C3.61121094 2.65394531 2.78492188 2.49539062 1.93359375 2.33203125 C1.29550781 2.22246094 0.65742188 2.11289063 0 2 C0 1.34 0 0.68 0 0 Z " fill="#E9E9E9" transform="translate(20,85)"/>
<path d="M0 0 C1.32 0 2.64 0 4 0 C3.67 0.99 3.34 1.98 3 3 C0.4375 4.1875 0.4375 4.1875 -2 5 C-1.125 1.125 -1.125 1.125 0 0 Z " fill="#EAB72C" transform="translate(83,146)"/>
<path d="M0 0 C0.33 0 0.66 0 1 0 C1.0270043 1.45823212 1.04639787 2.91660675 1.0625 4.375 C1.07410156 5.18710938 1.08570312 5.99921875 1.09765625 6.8359375 C1 9 1 9 0 11 C-0.99 10.67 -1.98 10.34 -3 10 C-2.690625 9.46375 -2.38125 8.9275 -2.0625 8.375 C-0.82172561 5.6015043 -0.4090325 2.99957163 0 0 Z " fill="#EDDCAE" transform="translate(90,136)"/>
</svg>
